<?xml version="1.0" standalone="no"?>
<!DOCTYPE svg PUBLIC "-//W3C//DTD SVG 20010904//EN"
 "http://www.w3.org/TR/2001/REC-SVG-20010904/DTD/svg10.dtd">
<svg version="1.0" xmlns="http://www.w3.org/2000/svg"
 width="1536.000000pt" height="1024.000000pt" viewBox="0 0 1536.000000 1024.000000"
 preserveAspectRatio="xMidYMid meet">

<g transform="translate(0.000000,1024.000000) scale(0.100000,-0.100000)"
fill="#000000" stroke="none">
<path d="M4550 7055 c-186 -26 -333 -69 -497 -145 -364 -171 -678 -494 -858
-882 -120 -261 -174 -497 -182 -795 -6 -202 3 -309 38 -483 108 -528 444
-1006 886 -1258 164 -94 345 -161 538 -199 127 -25 455 -25 575 0 365 76 668
242 920 503 284 294 447 626 526 1069 28 157 26 499 -4 668 -108 600 -461
1095 -966 1354 -300 153 -648 213 -976 168z m480 -290 c453 -87 835 -386 1050
-820 74 -150 116 -270 152 -436 19 -91 22 -133 22 -329 0 -197 -3 -238 -22
-330 -76 -347 -223 -622 -461 -861 -223 -223 -450 -348 -744 -411 -136 -28
-379 -31 -512 -5 -208 41 -435 140 -596 261 -118 89 -273 253 -358 381 -515
769 -316 1849 431 2342 188 124 385 193 648 227 68 8 306 -3 390 -19z"/>
<path d="M8940 6025 l0 -735 135 0 135 0 0 735 0 735 -135 0 -135 0 0 -735z"/>
<path d="M9410 6025 l0 -735 140 0 140 0 0 735 0 735 -140 0 -140 0 0 -735z"/>
<path d="M8460 6610 l0 -140 140 0 140 0 0 140 0 140 -140 0 -140 0 0 -140z"/>
<path d="M7188 6015 l2 -725 348 0 c291 0 357 3 403 16 144 43 247 125 302
242 29 62 32 75 32 167 0 82 -4 109 -23 149 -29 65 -82 128 -135 162 l-42 28
61 60 c77 78 106 147 106 256 0 176 -116 319 -293 359 -25 6 -198 11 -404 11
l-360 0 3 -725z m686 461 c51 -26 76 -68 76 -132 0 -70 -29 -111 -105 -149
-58 -29 -66 -30 -212 -33 l-153 -3 0 171 0 171 178 -3 c150 -3 183 -6 216 -22z
m11 -585 c46 -19 94 -71 106 -114 21 -78 -34 -168 -133 -216 -63 -31 -66 -32
-219 -32 l-154 -1 -3 192 -2 192 187 -4 c116 -3 200 -9 218 -17z"/>
<path d="M8460 5820 l0 -510 140 0 140 0 0 510 0 510 -140 0 -140 0 0 -510z"/>
</g>
</svg>
